<svg width="121" height="105" viewBox="0 0 121 105" fill="none" xmlns="http://www.w3.org/2000/svg">
<path d="M0.333374 99.6875V44.6219C1.36775 41.6906 3.40525 40.1312 6.54275 39.9625C8.21775 39.875 8.21462 39.8094 8.21462 38.0875C8.21462 28.8312 8.19275 19.575 8.21462 10.3188C8.249 4.45 12.6209 0.025 18.4584 0.01875C46.375 -0.00625 74.299 -0.00625 102.23 0.01875C108.005 0.01875 112.365 4.43125 112.443 10.1969C112.468 12.0312 112.443 13.8687 112.443 15.7031C112.443 27.3052 112.443 38.9062 112.443 50.5062C112.443 51.3344 112.399 52.1063 113.608 52.0375C116.99 51.8406 119.155 53.4844 120.33 56.575V99.6875C119.08 102.956 116.715 104.334 113.237 104.253C108.474 104.144 103.708 104.228 98.9459 104.225C98.2817 104.255 97.6163 104.204 96.9646 104.072C93.974 103.316 92.1803 100.947 92.1615 97.5531C92.1302 92.2802 92.1302 87.0083 92.1615 81.7375C92.1615 80.7063 91.874 80.2656 90.7678 80.2719C83.8178 80.3052 76.8667 80.3052 69.9146 80.2719C68.9334 80.2719 68.4865 80.5844 68.4959 81.6156C68.5292 84.5844 68.5292 87.5521 68.4959 90.5188C68.4802 91.6125 68.9584 91.9375 69.9834 91.9281C71.817 91.8787 73.6519 91.9278 75.4802 92.075C80.3177 92.5313 84.4552 97.0187 84.4427 101.912C84.4684 102.486 84.2675 103.047 83.8834 103.474C83.4993 103.9 82.9628 104.159 82.3896 104.194C81.9226 104.226 81.4543 104.234 80.9865 104.219C56.4615 104.219 31.9386 104.229 7.41775 104.25C3.95212 104.278 1.58337 102.969 0.333374 99.6875ZM60.3646 4.30625H19.9459C19.2021 4.30625 18.4615 4.33125 17.7209 4.3625C16.6204 4.42392 15.5692 4.83935 14.724 5.54688C13.0052 6.9 12.499 8.725 12.5084 10.8344C12.5365 19.8969 12.5084 28.9594 12.5084 38.0219C12.5084 39.8969 12.5521 39.9375 14.4052 39.9375C23.1157 39.9375 31.825 39.9375 40.5334 39.9375C41.5427 39.9375 42.6021 39.9031 43.5552 40.1781C44.5709 40.4719 45.1177 40.1188 45.7865 39.4562C51.7865 33.4146 57.8042 27.3937 63.8396 21.3937C64.1816 21.0189 64.5653 20.6844 64.9834 20.3969C65.3703 20.1461 65.8302 20.0326 66.2894 20.0746C66.7485 20.1166 67.1802 20.3118 67.5151 20.6287C67.8501 20.9456 68.0687 21.3658 68.1361 21.8219C68.2034 22.2781 68.1155 22.7436 67.8865 23.1437C67.5785 23.641 67.203 24.0932 66.7709 24.4875C60.8688 30.4021 54.9563 36.3083 49.0334 42.2062C48.2396 42.9937 47.7459 43.7125 48.2584 44.8531C48.5303 45.4625 48.449 46.1594 48.449 46.825C48.449 50.6917 48.449 54.5573 48.449 58.4219C48.449 59.9625 48.4834 59.9844 50.0334 59.9844C63.5042 59.9844 76.9771 59.9844 90.4521 59.9844C92.0709 59.9844 92.0709 59.9844 92.1459 58.3906C92.3302 54.4313 94.8084 52.0281 98.7396 52.0156C101.277 52.0156 103.815 52.0156 106.355 52.0156C108.096 52.0156 108.13 51.9875 108.13 50.25C108.13 37.1688 108.13 24.0865 108.13 11.0031C108.13 10.5344 108.13 10.0656 108.08 9.59687C107.887 7.1625 106.549 5.56875 104.362 4.64375C103.327 4.20937 102.211 4.29375 101.121 4.29375L60.3646 4.30625ZM44.1396 68.6469V55.0562C44.1396 52.2062 44.1396 49.3531 44.124 46.5031C44.124 44.9562 43.4552 44.3156 41.9053 44.2469C41.5928 44.2312 41.2803 44.2469 40.9678 44.2469H7.574C5.02712 44.2469 4.424 44.8719 4.424 47.4406C4.424 61.6969 4.424 75.9521 4.424 90.2063C4.424 91.9031 4.45525 91.9344 6.10837 91.9375H42.4271C44.0802 91.9375 44.1365 91.8812 44.1396 90.2156C44.1438 83.0219 44.1438 75.8323 44.1396 68.6469ZM96.4959 74.5031C96.4959 79.85 96.4959 85.1969 96.4959 90.5437C96.4959 91.4219 96.6771 91.9437 97.7115 91.9406C103.491 91.9156 109.268 91.9156 115.043 91.9406C115.962 91.9406 116.265 91.5563 116.265 90.6719C116.246 80.0969 116.265 69.5188 116.243 58.9406C116.243 56.9594 115.518 56.2344 113.546 56.225C108.754 56.1958 103.954 56.1958 99.1459 56.225C97.1615 56.225 96.5084 56.9313 96.5084 58.9375C96.4959 64.125 96.4917 69.3135 96.4959 74.5031ZM70.2959 75.9594C77.0928 75.9594 83.8896 75.9406 90.6834 75.9781C91.8084 75.9781 92.1959 75.6156 92.174 74.4906C92.1146 71.5625 92.1271 68.6312 92.174 65.7031C92.174 64.7125 91.8459 64.2969 90.8209 64.2969C77.1521 64.3156 63.4823 64.3156 49.8115 64.2969C48.7959 64.2969 48.4396 64.6844 48.4552 65.6906C48.499 68.5813 48.4552 71.4719 48.4709 74.3594C48.4709 75.9219 48.5084 75.9594 50.0334 75.9594C56.7855 75.9635 63.5396 75.9635 70.2959 75.9594ZM24.3584 96.2719H18.8552C14.4802 96.2719 10.1052 96.2937 5.73025 96.2562C4.68025 96.2562 4.33337 96.6406 4.41462 97.6437C4.55212 99.3 5.20525 99.9344 7.00837 99.9375C18.5688 99.9375 30.1313 99.9375 41.6959 99.9375C42.0866 99.9504 42.4774 99.9126 42.8584 99.825C43.8677 99.5563 44.3115 98.525 44.1365 97.1281C43.9959 96.0375 43.1802 96.2812 42.524 96.2781C36.4802 96.2594 30.4261 96.25 24.3615 96.25L24.3584 96.2719ZM63.9584 99.9344C68.7938 99.9344 73.6292 99.9344 78.4646 99.9344C78.7959 99.9344 79.2271 100.059 79.4021 99.675C79.5771 99.2906 79.2646 99.0125 79.0615 98.7375C77.8115 97.0469 76.1115 96.2656 74.024 96.2688H50.874C48.2396 96.2688 48.5646 96.1125 48.399 98.5312C48.3146 99.7812 48.7365 99.9688 49.8021 99.9594C54.5209 99.9156 59.2396 99.9375 63.9584 99.9344ZM64.2271 86.1031C64.2271 84.5406 64.2084 82.9781 64.2271 81.4156C64.2271 80.625 63.9146 80.2781 63.1209 80.2844C61.2459 80.3052 59.3761 80.3052 57.5115 80.2844C56.699 80.2844 56.4177 80.65 56.4209 81.4281C56.4438 84.5531 56.4438 87.6708 56.4209 90.7812C56.4209 91.6687 56.8365 91.9281 57.6427 91.9188C59.4365 91.8969 61.2271 91.8875 63.0209 91.9188C63.9584 91.9375 64.2521 91.525 64.2302 90.6438C64.199 89.1437 64.2271 87.625 64.2271 86.1031ZM106.471 96.25C103.54 96.25 100.612 96.25 97.6803 96.25C96.8428 96.25 96.4896 96.5469 96.4834 97.4125C96.4834 99.225 97.0584 99.9125 98.9115 99.9125C103.871 99.9344 108.833 99.9125 113.793 99.9125C114.144 99.9218 114.495 99.885 114.837 99.8031C115.827 99.5344 116.443 98.2563 116.233 97.0063C116.049 95.9125 115.183 96.2688 114.555 96.2594C111.862 96.25 109.165 96.25 106.471 96.25ZM48.4584 86.1031C48.4584 87.5437 48.4584 88.9844 48.4584 90.4281C48.4584 91.8719 48.5365 91.9156 50.0052 91.9312C50.2384 91.9187 50.4721 91.9187 50.7052 91.9312C51.7646 92.0312 52.1709 91.5562 52.1553 90.5031C52.1177 87.9312 52.1553 85.3594 52.1553 82.7875C52.1553 80.2156 52.1209 80.1688 49.5646 80.2875C48.7677 80.325 48.449 80.6375 48.4615 81.425C48.4834 82.9875 48.4584 84.5437 48.4584 86.1031Z" fill="white"/>
</svg>
