<svg width="159" height="100" viewBox="0 0 159 100" fill="none" xmlns="http://www.w3.org/2000/svg">
<path d="M105.368 57.7183C105.392 61.1027 104.844 64.0579 103.279 66.7548C101.145 70.4357 97.856 72.389 93.709 72.9585C91.5736 73.2726 89.3971 73.158 87.3065 72.6215C83.502 71.6185 80.6131 69.4068 79.0259 65.7956C76.7165 60.5422 76.7053 55.1865 79.1461 49.9792C81.096 45.8232 84.6141 43.6508 89.1048 43.0465C91.6736 42.7006 94.2245 42.8589 96.6822 43.7542C100.871 45.2807 103.422 48.3213 104.657 52.5346C105.159 54.2156 105.399 55.9641 105.368 57.7183ZM84.1198 57.9991C84.1039 58.709 84.1452 59.4189 84.2434 60.1221C84.5152 61.9743 85.1285 63.6704 86.4303 65.0644C89.2306 68.0758 95.8397 68.0522 97.8874 62.6089C98.9567 59.766 98.9826 56.8501 98.0896 53.96C97.2022 51.0923 95.2871 49.2963 92.2319 48.9806C89.4519 48.6931 87.1402 49.5973 85.5812 52.0257C84.4175 53.8499 84.1108 55.8897 84.1198 57.9991Z" fill="white"/>
<path d="M52.4321 58.0137C52.4321 53.4646 52.4321 48.9154 52.4321 44.3663C52.4321 43.5351 52.4523 43.5126 53.2757 43.5126C56.7364 43.5126 60.1982 43.4958 63.659 43.5126C66.1716 43.5283 68.5765 44.0046 70.668 45.503C73.3469 47.4215 74.5432 50.0611 74.3859 53.3421C74.2343 56.5052 72.6707 58.8146 70.0704 60.4781C69.574 60.796 69.5335 61.0285 69.8166 61.5295C71.6733 64.8217 73.4963 68.133 75.3306 71.4376C75.4025 71.569 75.4755 71.7004 75.5451 71.8318C75.8652 72.4373 75.8372 72.4901 75.1733 72.4979C74.7431 72.4979 74.3129 72.4979 73.8827 72.4979C72.2933 72.4979 70.7028 72.4777 69.1134 72.5092C68.5776 72.5193 68.2643 72.3474 68.0037 71.8712C66.3053 68.7688 64.5733 65.6855 62.8738 62.5831C62.6626 62.1989 62.4245 62.0495 61.9943 62.0708C61.3035 62.1045 60.6105 62.0787 59.9185 62.0798C59.1896 62.0798 59.1862 62.0798 59.1862 62.8403C59.1862 65.7607 59.1862 68.6811 59.1862 71.6016C59.1862 72.4934 59.1862 72.5002 58.2708 72.5002C56.5679 72.5002 54.8654 72.5002 53.1634 72.5002C52.4647 72.5002 52.4332 72.4676 52.4332 71.7701C52.4325 67.1857 52.4321 62.6003 52.4321 58.0137ZM59.1873 52.8052C59.1873 53.6656 59.2075 54.526 59.1795 55.3887C59.1626 55.884 59.3008 56.1143 59.8399 56.0727C60.3791 56.0312 60.9227 56.0727 61.4641 56.0615C62.7132 56.0289 63.9701 56.1738 65.2102 55.9492C66.2828 55.747 67.1309 55.2236 67.5061 54.1318C68.3496 51.6764 66.9624 49.6669 64.379 49.6231C62.8468 49.5972 61.3147 49.6298 59.7826 49.6051C59.3019 49.5972 59.1682 49.7882 59.1806 50.2352C59.203 51.0855 59.1873 51.9459 59.1873 52.8052Z" fill="white"/>
<path d="M154.416 72.5024C153.369 72.5024 152.321 72.4866 151.271 72.5102C150.847 72.5192 150.634 72.3586 150.484 71.9643C149.946 70.5041 149.361 69.0675 148.832 67.6106C148.674 67.1793 148.466 67.0007 147.983 67.003C144.655 67.0254 141.326 67.0254 137.996 67.003C137.547 67.003 137.331 67.1456 137.177 67.5646C136.661 68.9889 136.082 70.3907 135.571 71.8161C135.392 72.317 135.142 72.5136 134.598 72.5057C132.56 72.4765 130.521 72.4956 128.482 72.4934C127.744 72.4934 127.725 72.4642 128.004 71.7756C131.588 62.9342 135.173 54.0935 138.759 45.2536C138.921 44.8548 139.109 44.4673 139.237 44.0562C139.374 43.6193 139.651 43.4946 140.08 43.4946C141.989 43.5069 143.899 43.5148 145.802 43.4946C146.324 43.4878 146.596 43.6496 146.799 44.1562C149.05 49.7634 151.316 55.3639 153.598 60.9577C155.054 64.546 156.509 68.1344 157.965 71.7228C158.27 72.4743 158.255 72.4934 157.439 72.4945C156.433 72.502 155.425 72.5046 154.416 72.5024ZM143.047 52.4592C142.991 52.5142 142.94 52.5743 142.895 52.6389C141.903 55.2381 140.917 57.8395 139.918 60.4354C139.757 60.851 139.944 60.9296 140.294 60.9285C142.106 60.9285 143.917 60.9217 145.727 60.9285C146.154 60.9285 146.245 60.806 146.085 60.3994C145.523 58.9931 145 57.5767 144.46 56.1637L143.047 52.4592Z" fill="white"/>
<path d="M0.00674942 57.9801C0.00674942 53.4123 0.00674942 48.8444 0.00674942 44.2766C0.00674942 43.5386 0.032584 43.5105 0.755953 43.5105C6.92855 43.5105 13.1008 43.5105 19.2726 43.5105C20.0421 43.5105 20.0432 43.5105 20.0443 44.3046C20.0443 45.839 20.0241 47.3745 20.0544 48.9099C20.0656 49.4547 19.8781 49.6153 19.3456 49.6131C15.4143 49.5951 11.4897 49.603 7.56169 49.6041C6.75969 49.6041 6.75857 49.6041 6.75745 50.4151C6.75745 51.6686 6.77654 52.9233 6.74846 54.1768C6.73723 54.6969 6.92706 54.8508 7.43476 54.8508C10.9887 54.8339 14.5427 54.8418 18.0966 54.8418C19.0075 54.8418 19.0087 54.8418 19.0087 55.728C19.0087 57.2062 19.0087 58.6848 19.0087 60.1637C19.0087 60.9219 18.9896 60.9388 18.2112 60.9388H7.54933C6.76306 60.9388 6.76306 60.9388 6.76306 61.7115C6.76306 63.0213 6.76306 64.3317 6.76306 65.6429C6.76306 66.4033 6.76868 66.4067 7.56056 66.4067H19.5635C20.3768 66.4067 20.3779 66.4067 20.379 67.2121C20.379 68.7464 20.3633 70.2819 20.388 71.8174C20.397 72.3195 20.2476 72.5127 19.7242 72.5115C13.3644 72.4996 7.00456 72.4996 0.644752 72.5115C0.0921159 72.5115 -0.00111329 72.2678 9.95328e-06 71.7938C0.0112424 67.19 0.0134889 62.5854 0.00674942 57.9801Z" fill="white"/>
<path d="M24.0216 53.0381C24.0216 50.0985 24.0317 47.159 24.0115 44.2206C24.0115 43.6848 24.1755 43.4961 24.7146 43.5029C26.4916 43.5276 28.2697 43.5242 30.0467 43.5029C30.5521 43.5029 30.7206 43.6646 30.7206 44.1847C30.7049 49.5583 30.7049 54.9311 30.7206 60.3032C30.7206 61.577 30.8251 62.8462 31.3833 64.0301C32.201 65.7611 33.5804 66.6619 35.4618 66.8573C36.6749 66.9831 37.8622 66.9023 38.9596 66.3384C40.9039 65.341 41.67 63.5831 41.7374 61.5332C41.8272 58.8037 41.7733 56.0686 41.7756 53.3335C41.7756 50.3202 41.7756 47.3062 41.7756 44.2914C41.7756 43.5601 41.8194 43.5118 42.5225 43.5107C44.2808 43.5062 46.0405 43.5062 47.8018 43.5107C48.4757 43.5107 48.5308 43.5669 48.5308 44.2532C48.5308 49.8885 48.5487 55.5227 48.5218 61.158C48.5117 63.2158 48.15 65.2208 47.1862 67.0708C46.0158 69.3172 44.2512 70.9493 41.907 71.8794C37.9442 73.4519 33.9645 73.4328 30.086 71.6311C26.7252 70.0698 24.891 67.2954 24.2451 63.6887C24.0798 62.6918 24.0046 61.682 24.0205 60.6716C24.0283 58.1297 24.0216 55.5833 24.0216 53.0381Z" fill="white"/>
<path d="M109.094 57.9971V44.2935C109.094 43.5241 109.094 43.5185 109.88 43.5185C113.303 43.5185 116.732 43.5016 120.149 43.5185C122.744 43.5353 125.21 44.0385 127.328 45.6605C129.392 47.242 130.455 49.3672 130.723 51.9372C130.962 54.2207 130.631 56.3897 129.407 58.3543C127.77 60.9793 125.251 62.2036 122.292 62.6226C120.359 62.8978 118.407 62.7181 116.465 62.7349C115.919 62.7349 115.767 62.9034 115.772 63.4381C115.795 66.19 115.784 68.942 115.782 71.6939C115.782 72.4802 115.772 72.4937 115.015 72.4948C113.292 72.4948 111.57 72.4948 109.848 72.4948C109.097 72.4948 109.088 72.4836 109.088 71.7478C109.092 67.1672 109.094 62.5837 109.094 57.9971ZM115.785 53.1671C115.785 54.178 115.796 55.189 115.785 56.1999C115.778 56.5762 115.897 56.7402 116.295 56.7346C117.643 56.7166 118.991 56.7604 120.339 56.7188C122.959 56.6368 124.196 55.271 124.054 52.6751C123.969 51.1172 122.977 49.9861 121.394 49.73C119.668 49.4514 117.923 49.657 116.187 49.6053C115.799 49.5941 115.794 49.8581 115.795 50.1355C115.787 51.1487 115.785 52.1585 115.785 53.1694V53.1671Z" fill="white"/>
<path d="M120.245 17.6388C120.147 17.7626 120.042 17.8808 119.93 17.9927C119.517 18.3667 119.2 19.0215 118.694 19.071C118.189 19.1204 117.871 18.4453 117.488 18.078C114.331 15.0374 110.832 12.3728 107.062 10.1378C97.6272 4.56105 86.7571 1.89091 75.8122 2.46156C61.9854 3.15721 48.9162 8.98939 39.1641 18.816C38.8272 19.153 38.589 19.2237 38.2577 18.8362C37.9882 18.5244 37.6945 18.2345 37.3793 17.9691C37.0558 17.6939 37.0783 17.4861 37.3793 17.1963C38.6924 15.9146 40.029 14.66 41.4409 13.4896C47.5514 8.41474 54.3987 4.71253 62.0098 2.43684C65.8099 1.30515 69.7153 0.563361 73.6657 0.222928C82.1276 -0.52103 90.6496 0.602362 98.6296 3.51372C106.61 6.42508 113.853 11.0534 119.848 17.0716C119.997 17.2277 120.199 17.3535 120.245 17.6388Z" fill="white"/>
<path d="M91.193 89.6455C92.5769 89.6455 93.9618 89.6612 95.349 89.6376C95.841 89.6297 96.0522 89.7623 96.0432 90.2992C96.0151 92.002 96.0275 93.706 96.0432 95.4088C96.0515 95.7274 95.9364 96.0369 95.7219 96.2726C93.8574 98.4495 91.5311 99.7019 88.6522 99.9501C86.7641 100.112 84.9545 99.8939 83.2371 99.0942C80.648 97.889 78.9789 95.8783 78.3094 93.114C77.5355 89.9195 77.9174 86.8744 80.0111 84.2404C82.1543 81.5446 85.0725 80.5798 88.4355 80.8291C90.345 80.9695 92.1073 81.5233 93.5676 82.8296C94.5976 83.7507 95.2715 84.9009 95.7017 86.2061C95.8141 86.5431 95.7219 86.7183 95.3648 86.816C94.2842 87.1182 93.2092 87.4394 92.1354 87.764C91.8288 87.8573 91.6547 87.7876 91.5356 87.4697C90.8325 85.5894 89.434 84.7481 87.4627 84.7403C85.3578 84.7324 83.8167 85.6714 82.9181 87.5428C82.0846 89.277 82.0903 91.1135 82.7384 92.9006C83.4438 94.8438 84.9849 95.7907 86.9663 96.0266C88.6275 96.2243 90.154 95.8581 91.4929 94.7854C91.9883 94.3889 91.9939 93.9048 91.9422 93.3758C91.9063 93.0163 91.6053 93.0815 91.3806 93.0804C89.9395 93.0804 88.4995 93.0804 87.0584 93.0804C86.3204 93.0804 86.3193 93.0803 86.317 92.3244C86.317 91.6684 86.353 91.0113 86.3058 90.3587C86.2631 89.769 86.5024 89.6275 87.0494 89.6399C88.4231 89.6634 89.8081 89.6455 91.193 89.6455Z" fill="white"/>
<path d="M75.6371 99.6928C75.0025 99.6928 74.3656 99.6816 73.7276 99.6928C73.376 99.7018 73.1817 99.5625 73.0615 99.23C72.756 98.3865 72.4111 97.5575 72.109 96.7117C71.9776 96.3444 71.781 96.1826 71.3733 96.1871C69.3342 96.2044 67.2963 96.2044 65.2594 96.1871C64.8764 96.1871 64.6888 96.3354 64.563 96.6847C64.2597 97.5283 63.9104 98.3573 63.6083 99.2019C63.4813 99.5558 63.2803 99.6984 62.9051 99.6939C61.6531 99.6782 60.4003 99.6782 59.1467 99.6939C58.6559 99.6995 58.5716 99.5367 58.7536 99.0907C61.1229 93.2716 63.4817 87.4483 65.83 81.6209C65.9884 81.2267 66.2164 81.0896 66.6298 81.0975C67.7699 81.1188 68.9111 81.1166 70.0512 81.0975C70.4421 81.0907 70.6622 81.2188 70.8128 81.5928C73.1708 87.4337 75.5371 93.2746 77.9117 99.1154C78.0801 99.531 78.0049 99.704 77.5387 99.6928C76.9097 99.6816 76.2684 99.6928 75.6371 99.6928ZM68.336 86.8305C67.6621 88.5873 67.0465 90.2104 66.4265 91.8301C66.3142 92.1266 66.3883 92.2412 66.7073 92.2389C67.7916 92.2307 68.8774 92.2307 69.9647 92.2389C70.2691 92.2389 70.3736 92.1446 70.2545 91.8368C69.6221 90.216 69.0077 88.5918 68.3371 86.8305H68.336Z" fill="white"/>
<path d="M43.657 90.3935C43.657 87.5292 43.6683 84.665 43.6469 81.8018C43.6469 81.2593 43.8188 81.0964 44.3534 81.0987C48.1882 81.1181 52.0226 81.1181 55.8566 81.0987C56.3778 81.0987 56.5463 81.2739 56.5305 81.7816C56.4991 82.642 56.5002 83.5046 56.5305 84.365C56.5474 84.8537 56.3789 85.0177 55.8858 85.0132C53.4922 84.9929 51.0974 85.0222 48.7038 84.9918C48.132 84.9851 47.94 85.1502 47.9804 85.7208C48.0208 86.375 48.0208 87.0311 47.9804 87.6854C47.9546 88.1785 48.132 88.3368 48.6229 88.3324C50.7571 88.311 52.8912 88.3222 55.0198 88.3245C55.8375 88.3245 55.8409 88.3301 55.842 89.1276C55.8431 89.9251 55.842 90.7001 55.842 91.4864C55.842 92.2727 55.842 92.285 55.0175 92.285C52.9036 92.285 50.7896 92.3019 48.6768 92.2749C48.1376 92.2682 47.9478 92.4311 47.9793 92.9747C48.0181 93.6856 48.0181 94.398 47.9793 95.1089C47.9546 95.6166 48.1556 95.7469 48.633 95.7435C51.0648 95.7255 53.4966 95.7334 55.9273 95.7357C56.7338 95.7357 56.7383 95.7357 56.7395 96.55C56.7395 97.4115 56.7271 98.2731 56.7395 99.1335C56.7473 99.5412 56.5867 99.7018 56.1778 99.6951C52.1941 99.6884 48.2099 99.6884 44.2254 99.6951C43.7267 99.6951 43.6435 99.4592 43.6458 99.0346C43.6626 96.158 43.657 93.2757 43.657 90.3935Z" fill="white"/>
<path d="M115.836 90.38C115.836 87.5547 115.836 84.7293 115.836 81.904C115.836 81.1177 115.836 81.1099 116.6 81.1099C120.377 81.1099 124.154 81.1099 127.931 81.1099C128.696 81.1099 128.697 81.1099 128.698 81.8961C128.698 82.7195 128.676 83.5428 128.707 84.3673C128.726 84.8581 128.555 85.0176 128.063 85.0131C125.652 84.9929 123.24 85.0131 120.829 84.994C120.317 84.994 120.124 85.1322 120.155 85.6579C120.196 86.2914 120.164 86.9294 120.165 87.5674C120.165 88.32 120.165 88.3233 120.902 88.3233C122.998 88.3233 125.092 88.3233 127.183 88.3233C128.016 88.3233 128.017 88.3233 128.018 89.1691C128.018 89.9925 127.997 90.8169 128.026 91.6403C128.043 92.1266 127.868 92.2974 127.379 92.2929C125.21 92.2749 123.041 92.3041 120.872 92.2727C120.295 92.2648 120.115 92.4445 120.153 93.0084C120.198 93.6599 120.164 94.317 120.165 94.9718C120.165 95.73 120.165 95.7323 120.951 95.7323H128.075C128.913 95.7323 128.914 95.7323 128.915 96.5713C128.915 97.3381 128.915 98.1053 128.915 98.8728C128.915 99.6906 128.915 99.6939 128.113 99.6939H117.399C117.101 99.6939 116.799 99.6737 116.501 99.6939C115.992 99.7378 115.816 99.5378 115.819 99.02C115.846 96.1422 115.836 93.2578 115.836 90.38Z" fill="white"/>
<path d="M113.547 87.5012C113.547 89.2602 113.56 91.0204 113.547 92.7805C113.512 96.7601 110.64 99.7131 106.661 99.9468C105.183 100.033 103.741 99.9355 102.364 99.3998C99.4993 98.2911 98.0155 96.0985 97.9133 93.1096C97.783 89.2906 97.8807 85.4715 97.8684 81.6525C97.8684 81.238 98.0234 81.0909 98.43 81.0976C99.4578 81.1133 100.488 81.1279 101.516 81.0976C102.068 81.0785 102.215 81.2908 102.212 81.8154C102.195 85.2031 102.206 88.5919 102.201 91.9796C102.192 92.485 102.243 92.9897 102.35 93.4836C102.743 95.1685 103.946 96.0671 105.8 96.0547C107.54 96.0413 108.732 95.0854 109.097 93.4286C109.194 92.9326 109.236 92.4275 109.223 91.9223C109.223 88.5721 109.223 85.2214 109.223 81.8704C109.223 81.1201 109.234 81.11 109.969 81.1088C110.961 81.1088 111.953 81.1246 112.943 81.101C113.403 81.0898 113.565 81.2504 113.559 81.7154C113.541 83.644 113.551 85.5715 113.551 87.5001L113.547 87.5012Z" fill="white"/>
<path d="M104.441 35.5445C104.45 35.8029 102.897 37.153 102.713 37.0755C102.598 37.0132 102.498 36.9274 102.419 36.8239C97.6749 31.6357 91.8924 28.212 84.9811 26.9001C74.9191 24.9905 65.8961 27.3494 57.9828 33.881C56.9465 34.7405 55.9787 35.6794 55.0882 36.6891C54.7456 37.0744 54.4884 37.1856 54.1065 36.7633C53.855 36.4854 53.5723 36.2374 53.2641 36.0242C52.8249 35.7209 52.917 35.4749 53.2304 35.1334C56.6776 31.3908 60.7179 28.4917 65.4142 26.5238C69.0888 24.9687 73.0128 24.086 76.9994 23.9179C86.5919 23.5225 94.9151 26.5957 102.023 33.0296C102.788 33.7204 103.494 34.4662 104.189 35.2255C104.289 35.3367 104.373 35.4581 104.441 35.5445Z" fill="white"/>
<path d="M28.7258 90.4218C28.7258 87.5575 28.7404 84.6933 28.7146 81.829C28.7146 81.2584 28.8853 81.0753 29.4503 81.0978C30.4208 81.1371 31.3958 81.1348 32.3708 81.0978C32.9211 81.0775 33.0705 81.2865 33.0694 81.8144C33.0526 86.195 33.0593 90.5757 33.0604 94.9563C33.0604 95.7291 33.0604 95.7314 33.8366 95.7314C36.2493 95.7314 38.6624 95.7314 41.0759 95.7314C41.7768 95.7314 41.806 95.764 41.8094 96.457C41.8094 97.2612 41.8094 98.0662 41.8094 98.872C41.8094 99.6897 41.8094 99.6931 41.0051 99.6931H30.2265C28.7258 99.6931 28.7258 99.6931 28.7258 98.1711V90.4218Z" fill="white"/>
<path d="M69.6794 21.7442C67.3419 21.7442 65.9232 20.7142 65.42 18.6834C64.9078 16.6166 64.5304 14.5161 64.098 12.4292C63.8812 11.3857 63.6723 10.341 63.4645 9.29643C63.2668 8.29899 63.5521 7.84857 64.5383 7.64414C67.2453 7.08252 69.9579 6.54448 72.6616 5.96713C73.1805 5.8548 73.3726 6.00982 73.4411 6.50404C73.5164 7.03983 73.6298 7.57224 73.7567 8.09904C73.8533 8.49667 73.7376 8.67078 73.3243 8.75166C71.3631 9.13693 69.4075 9.55364 67.4486 9.95127C66.7151 10.1007 66.7106 10.0928 66.8465 10.796C66.9701 11.4384 67.1195 12.0765 67.2228 12.7223C67.288 13.1289 67.4542 13.2345 67.8631 13.1469C69.6165 12.7684 71.3755 12.4213 73.1322 12.063C73.896 11.9068 73.8949 11.9057 74.0477 12.6572C74.1487 13.1525 74.2409 13.649 74.3588 14.1387C74.4554 14.5408 74.3071 14.7116 73.9095 14.788C72.2246 15.1137 70.5398 15.4619 68.8549 15.7989C67.9035 15.9865 67.899 15.9797 68.0933 16.9468C68.1484 17.2209 68.2147 17.495 68.2933 17.7634C68.5561 18.662 69.056 18.9878 69.9781 18.8137C71.663 18.4924 73.3557 18.1723 75.0327 17.8027C75.5775 17.6837 75.7752 17.832 75.8437 18.3644C75.919 18.9372 76.0684 19.5011 76.1807 20.0683C76.2279 20.293 76.2077 20.4727 75.9268 20.5266C73.7444 20.949 71.5878 21.5027 69.6794 21.7442Z" fill="white"/>
<path d="M59.0243 23.1449C59.0602 24.7466 58.5649 26.1642 57.4989 27.3615C56.2858 28.7251 54.8435 29.7102 52.9868 29.9686C51.1593 30.2236 49.5722 29.7046 48.2692 28.4151C46.8977 27.056 45.7981 25.4644 44.5625 23.9873C43.7953 23.0696 43.0607 22.1227 42.2913 21.2062C42.0554 20.9242 42.061 20.7423 42.352 20.5199C42.8417 20.1447 43.3348 19.7695 43.7841 19.3494C44.1783 18.981 44.4232 19.0125 44.7602 19.4415C46.2732 21.3511 47.8132 23.2269 49.352 25.1094C50.0698 25.9878 50.8235 26.837 52.0669 26.9179C53.4429 27.0066 54.4785 26.3562 55.2749 25.3038C56.0128 24.3277 56.1263 23.2493 55.6029 22.1317C55.2659 21.4128 54.7234 20.8332 54.2303 20.2222C52.8307 18.4913 51.4345 16.7581 50.0203 15.0395C49.7463 14.7026 49.7294 14.4925 50.0911 14.2252C50.6168 13.8366 51.1211 13.4176 51.6198 12.9896C51.867 12.7796 52.0489 12.7537 52.2691 13.0278C54.155 15.3754 56.0679 17.7016 57.9313 20.0672C58.6252 20.9444 59.0095 22.0265 59.0243 23.1449Z" fill="white"/>
<path d="M107.469 20.0627L102.917 23.0101C101.597 23.8648 100.272 24.7095 98.9669 25.5834C98.622 25.8081 98.3468 25.8294 97.9975 25.6137C97.4359 25.2768 96.8585 24.9701 96.289 24.6478C95.7196 24.3254 95.7027 24.2973 96.2509 23.939C97.6302 23.0404 99.011 22.1418 100.393 21.2432C103.014 19.5426 105.635 17.8424 108.256 16.1425C109.155 15.5641 109.528 15.5809 110.39 16.2167C111.302 16.8906 111.452 17.259 111.164 18.2643C109.828 22.9213 108.489 27.5775 107.15 32.233C107.028 32.6587 106.894 32.7126 106.569 32.397C106.007 31.8489 105.428 31.3153 104.834 30.802C104.72 30.7218 104.637 30.6052 104.598 30.4714C104.56 30.3377 104.568 30.1948 104.621 30.0663C104.82 29.4238 104.981 28.7678 105.183 28.1276C105.287 27.8052 105.205 27.6041 104.944 27.4098C104.27 26.9077 103.615 26.3753 102.934 25.8788C102.558 25.6048 102.587 25.4194 102.969 25.1903C103.456 24.9109 103.926 24.6022 104.375 24.2658C104.825 23.9154 105.175 23.9401 105.6 24.3153C106.126 24.7803 106.152 24.7533 106.349 24.0783C106.684 22.9288 107.017 21.779 107.349 20.6288C107.397 20.4794 107.417 20.3188 107.469 20.0627Z" fill="white"/>
<path d="M89.874 7.19605C90.9972 7.2084 92.0385 7.57682 93.1044 7.8464C94.2277 8.12946 95.3419 8.44397 96.4663 8.72029C96.846 8.81464 96.9459 8.98538 96.8325 9.35717C96.6584 9.9289 96.5023 10.5074 96.3832 11.0926C96.2945 11.5127 96.099 11.5767 95.7093 11.4711C94.0132 11.0218 92.3148 10.5725 90.6086 10.1648C89.6246 9.93002 89.1484 10.2355 88.8215 11.1937C88.2666 12.8347 88.2666 12.8347 89.9144 13.2638C91.341 13.6367 92.7652 14.0265 94.1985 14.3724C94.7039 14.4949 94.8264 14.7173 94.6658 15.1969C94.5016 15.6942 94.3691 16.2014 94.2693 16.7155C94.1805 17.1648 93.9604 17.2356 93.5537 17.1244C91.806 16.6504 90.047 16.2123 88.3037 15.7226C87.7848 15.5777 87.6006 15.6934 87.4759 16.2247C87.1131 17.7714 86.6683 19.2979 86.2886 20.8401C86.1763 21.2894 85.9909 21.4365 85.5495 21.2894C85.1968 21.1703 84.8306 21.0894 84.4701 20.9895C83.5793 20.739 83.3176 20.2807 83.5602 19.3428C84.1982 16.8829 84.8422 14.4245 85.4922 11.9676C85.6787 11.2633 85.846 10.55 86.0875 9.86486C86.6997 8.10137 88.0184 7.1938 89.874 7.19605Z" fill="white"/>
</svg>
