<svg width="146" height="74" viewBox="0 0 146 74" fill="none" xmlns="http://www.w3.org/2000/svg">
<path d="M61.1695 73.9593C41.3956 73.9593 21.6217 73.939 1.84781 74C0.318365 74 -0.0035607 73.641 2.95525e-05 72.1486C0.05508 50.2553 0.0678453 28.3636 0.0383255 6.47342C1.98304 1.82286 5.47516 -0.0225309 10.5386 0.000207361C35.5906 0.1135 60.6457 0.11709 85.704 0.0109781C87.9372 0.0109781 89.4367 0.647649 90.8094 2.44756C97.8391 11.6625 104.994 20.7806 112.103 29.9357C112.843 30.8931 113.622 31.8182 114.288 32.8211C115.313 34.3613 114.579 35.8752 113.72 37.0719C112.903 38.2112 111.746 37.1916 110.916 36.732C108.429 35.3641 105.827 34.8723 102.998 34.9944C99.852 35.1284 96.695 35.0027 93.5439 35.0231C92.1318 35.0326 90.9039 34.694 90.4815 33.216C90.0434 31.677 89.5528 29.9393 91.0056 28.7342C92.0348 27.8785 92.2024 26.9199 92.255 25.7842C92.8438 13.5031 82.8139 7.08018 73.107 7.68573C64.6101 8.21469 59.5144 13.5067 59.3037 20.7494C59.2631 22.1461 58.3775 22.8653 57.3806 23.6121C55.5579 24.9776 53.448 25.9828 51.4399 28.0927C54.2894 28.0927 56.6111 28.0293 58.928 28.1107C61.0402 28.1848 61.6398 29.1016 60.9409 31.1109C60.5113 32.323 60.0024 33.5056 59.4174 34.6509C58.6395 36.1935 58.4828 37.2933 60.7805 37.1401C62.7097 37.0109 63.2458 38.362 63.5474 39.852C63.861 41.4077 63.9399 42.8546 62.0491 43.666C57.9909 45.4073 55.6991 48.7211 54.1852 52.6883C52.6486 56.7142 52.1651 60.9459 51.7164 65.174C51.4004 68.1563 51.7355 68.6541 54.7358 68.5416C57.0263 68.4555 58.6336 69.1532 59.6281 71.2343C60.0768 72.1738 60.6513 73.051 61.1695 73.9593ZM17.5587 62.2312C18.3025 62.2376 19.0402 62.0954 19.7282 61.8128C20.4163 61.5303 21.041 61.1131 21.5657 60.5858C22.0903 60.0585 22.5043 59.4317 22.7833 58.7421C23.0624 58.0526 23.2009 57.3143 23.1906 56.5705C23.1452 53.4422 20.5578 50.9171 17.457 50.9781C14.4807 51.038 11.9244 53.5906 11.8814 56.5442C11.8371 59.5983 14.4711 62.2312 17.5587 62.2312Z" fill="white"/>
<path d="M120.845 73.9591C120.806 67.5721 120.771 68.5833 126.318 68.4936C127.691 68.472 129.07 68.4936 130.437 68.4936C135.453 68.4864 139.967 64.7837 140.935 59.9476C141.185 58.703 140.68 57.7551 139.97 56.8516C139.474 56.2197 138.534 55.6692 138.466 55.011C138.021 50.8415 134.683 49.3863 131.697 47.572C130.27 46.7032 129.495 45.4885 129.611 43.7879C129.776 41.3764 127.619 39.9296 126.409 38.8034C118.572 31.5033 114.409 21.8168 108.699 13.1559C106.4 9.66737 104.318 6.03763 102.175 2.44978C100.931 0.371024 101.104 0.0694436 103.595 0.0646567C114.581 0.0471043 125.565 0.0451097 136.549 0.0586729C141.097 0.0586729 143.868 2.53594 145.589 6.47325C145.589 28.4049 145.603 50.3365 145.63 72.2681C145.63 73.7042 145.34 74.0154 143.89 73.9974C136.209 73.9077 128.531 73.9591 120.845 73.9591Z" fill="white"/>
</svg>
