<svg width="145" height="50" viewBox="0 0 145 50" fill="none" xmlns="http://www.w3.org/2000/svg">
<path d="M20.0529 49.9866C16.4134 49.9866 12.7739 50.0143 9.13493 49.9759C7.04714 49.9545 5.05076 49.4856 3.23382 48.4089C1.82315 47.5716 0.740886 46.4425 0.243202 44.8433C-0.0891512 43.7763 -0.0671447 42.6861 0.22571 41.6186C1.53368 36.8561 2.852 32.0975 4.18066 27.3426C5.9487 20.9739 7.71673 14.605 9.48477 8.23594C10.2153 5.60269 10.944 2.96945 11.6707 0.3362C11.7368 0.0935649 11.8462 0.00892485 12.0996 0.00948912C17.5632 0.0162603 23.027 0.0179531 28.491 0.0145675C28.8555 0.0145675 28.8578 0.0213387 28.7489 0.413504C27.3412 5.4795 25.9337 10.5455 24.5264 15.6115L19.2223 34.7187C19.0344 35.3958 18.8415 36.0729 18.6581 36.7546C18.4386 37.5694 18.7083 38.1867 19.452 38.598C19.9446 38.87 20.4857 38.9507 21.0319 38.9541C22.367 38.9609 23.7026 39.0043 25.0382 38.9084C25.4804 38.8855 25.9158 38.7902 26.327 38.6262C27.0041 38.3407 27.3145 37.7573 27.5018 37.0948C27.8404 35.8935 28.171 34.6888 28.5057 33.4835C29.878 28.5439 31.251 23.6047 32.6248 18.6659C34.3135 12.5793 36.0029 6.49104 37.6931 0.401091C37.7749 0.106543 37.9007 0.00610352 38.2133 0.00610352C43.622 0.0170127 49.0292 0.019834 54.4349 0.0145675C54.4727 0.0145675 54.5099 0.0145675 54.5477 0.0145675C54.8598 0.0202102 54.8784 0.0377025 54.7954 0.34015C54.4682 1.52624 54.1386 2.7112 53.8068 3.89503C51.6303 11.7297 49.4537 19.5642 47.2771 27.3985C45.8307 32.5995 44.3824 37.7996 42.9323 42.9988C42.5593 44.331 41.973 45.5656 41.0967 46.6507C40.1121 47.8706 38.8284 48.6296 37.346 49.0832C35.8547 49.5397 34.3204 49.7429 32.7721 49.8704C29.9558 50.1017 27.1339 49.9449 24.3148 49.9833C22.8935 50.003 21.4732 49.9866 20.0529 49.9866Z" fill="white"/>
<path d="M129.968 0.0145184H143.876C144.302 0.0145184 144.309 0.0145184 144.194 0.436026C143.247 3.8758 142.3 7.31576 141.354 10.7559C141.278 11.0347 141.11 11.038 140.892 11.038C135.183 11.0358 129.475 11.0358 123.767 11.038C122.94 11.038 122.115 11.0234 121.291 11.1464C120.243 11.3038 119.629 11.9019 119.355 12.8956C118.917 14.4887 118.475 16.0813 118.032 17.6733C116.602 22.8299 115.171 27.9866 113.737 33.1432C113.405 34.3378 113.092 35.5374 112.737 36.7246C112.437 37.7296 112.997 38.3695 113.703 38.6815C114.211 38.9072 114.752 38.9636 115.302 38.9636H134.374C134.891 38.9636 134.893 38.9636 134.753 39.4664C133.809 42.8667 132.866 46.2681 131.926 49.6706C131.859 49.9149 131.748 49.9917 131.496 49.9917C122.318 49.9855 113.14 50.0114 103.96 49.9697C101.53 49.9584 99.2283 49.3383 97.255 47.8215C95.9742 46.8369 95.1413 45.5644 94.9195 43.941C94.796 43.0331 94.9511 42.1478 95.1949 41.2704C97.9591 31.3291 100.723 21.3876 103.487 11.446C103.973 9.70073 104.39 7.93514 104.992 6.22372C105.525 4.70019 106.332 3.34934 107.597 2.3077C108.538 1.53353 109.629 1.07252 110.796 0.761608C112.301 0.360414 113.839 0.173077 115.388 0.0765878C117.624 -0.062222 119.862 0.0325749 122.1 0.020161C124.721 -0.000152584 127.344 0.0145184 129.968 0.0145184Z" fill="white"/>
<path d="M81.6616 29.6176C78.4931 29.6176 75.3245 29.6161 72.156 29.6131C71.8925 29.6131 71.7508 29.6769 71.6746 29.9517C69.9021 36.3674 68.1247 42.7812 66.3423 49.1932C66.1234 49.9832 66.1273 49.9832 65.3182 49.9832H49.5221C49.4465 49.9832 49.3709 49.9775 49.2964 49.9832C49.0667 50.0035 49.0554 49.8974 49.1096 49.7101C49.3173 48.9884 49.5119 48.2627 49.7128 47.5393C52.3634 37.9965 55.0118 28.4534 57.6583 18.9101C57.735 18.6314 57.8574 18.5479 58.1424 18.5479C70.1775 18.5546 82.2129 18.5567 94.2487 18.5541C94.6189 18.5541 94.624 18.5569 94.5247 18.9135C93.5658 22.3691 92.6082 25.825 91.652 29.2813C91.5741 29.5635 91.4263 29.6199 91.1678 29.6199C87.9997 29.6158 84.8309 29.615 81.6616 29.6176Z" fill="white"/>
<path d="M78.3132 11.0338H60.2566C59.8583 11.0338 59.8617 11.0338 59.9711 10.6354C60.6505 8.19328 61.3293 5.75095 62.0076 3.30842C62.2846 2.31305 62.5684 1.31994 62.8359 0.322319C62.8974 0.0966118 62.999 0.00632906 63.2439 0.00858613C64.4096 0.021 65.576 0.0142288 66.7423 0.0142288H99.2441C99.8535 0.0142288 99.7847 -0.00269919 99.6391 0.522069C98.6985 3.91557 97.7505 7.30682 96.8178 10.702C96.7405 10.9841 96.6022 11.0406 96.3415 11.0406C90.3321 11.0334 84.3226 11.0312 78.3132 11.0338Z" fill="white"/>
</svg>
